<svg xmlns="http://www.w3.org/2000/svg" xmlns:xlink="http://www.w3.org/1999/xlink" width="500" zoomAndPan="magnify" viewBox="0 0 375 112.499997" height="150" preserveAspectRatio="xMidYMid meet" version="1.0"><defs><g/><clipPath id="dc3e22236f"><path d="M 0.828125 0 L 374.167969 0 L 374.167969 112.003906 L 0.828125 112.003906 Z M 0.828125 0 " clip-rule="nonzero"/></clipPath><clipPath id="11903341ee"><path d="M 12.039062 11.199219 L 362.960938 11.199219 L 362.960938 103.789062 L 12.039062 103.789062 Z M 12.039062 11.199219 " clip-rule="nonzero"/></clipPath><clipPath id="774054df1e"><path d="M 21.117188 19.90625 L 180.199219 19.90625 L 180.199219 95.125 L 21.117188 95.125 Z M 21.117188 19.90625 " clip-rule="nonzero"/></clipPath></defs><g clip-path="url(#dc3e22236f)"><path fill="#ffffff" d="M 0.828125 0 L 374.171875 0 L 374.171875 119.46875 L 0.828125 119.46875 Z M 0.828125 0 " fill-opacity="1" fill-rule="nonzero"/><path fill="#ffffff" d="M 0.828125 0 L 374.171875 0 L 374.171875 112.003906 L 0.828125 112.003906 Z M 0.828125 0 " fill-opacity="1" fill-rule="nonzero"/><path fill="#ffffff" d="M 0.828125 0 L 374.171875 0 L 374.171875 112.003906 L 0.828125 112.003906 Z M 0.828125 0 " fill-opacity="1" fill-rule="nonzero"/></g><g clip-path="url(#11903341ee)"><path stroke-linecap="butt" transform="matrix(0.746681, 0, 0, 0.746399, 12.040924, 11.20022)" fill="none" stroke-linejoin="miter" d="M -0.00249369 -0.00134203 L 469.97291 -0.00134203 L 469.97291 124.047357 L -0.00249369 124.047357 L -0.00249369 -0.00134203 " stroke="#000000" stroke-width="8" stroke-opacity="1" stroke-miterlimit="4"/></g><g clip-path="url(#774054df1e)"><path fill="#000000" d="M 21.117188 19.90625 L 181.101562 19.90625 L 181.101562 95.898438 L 21.117188 95.898438 Z M 21.117188 19.90625 " fill-opacity="1" fill-rule="nonzero"/></g><g fill="#ffffff" fill-opacity="1"><g transform="translate(47.875195, 69.191794)"><g><path d="M 2.671875 0 L 9.964844 0 L 9.964844 -6.246094 L 13.320312 -6.246094 C 19.746094 -6.246094 23.828125 -9.964844 23.828125 -15.777344 C 23.828125 -21.589844 19.746094 -25.269531 13.320312 -25.269531 L 2.671875 -25.269531 Z M 9.890625 -12.347656 L 9.890625 -19.132812 L 12.636719 -19.132812 C 15.054688 -19.132812 16.460938 -17.835938 16.460938 -15.742188 C 16.460938 -13.609375 15.054688 -12.347656 12.636719 -12.347656 Z M 9.890625 -12.347656 "/></g></g></g><g fill="#ffffff" fill-opacity="1"><g transform="translate(75.27342, 69.191794)"><g><path d="M 2.671875 0 L 9.964844 0 L 9.964844 -7.183594 L 12.707031 -7.183594 L 16.316406 0 L 24.585938 0 L 19.929688 -8.519531 C 22.601562 -10 24.117188 -12.671875 24.117188 -16.210938 C 24.117188 -21.804688 20.324219 -25.269531 14.1875 -25.269531 L 2.671875 -25.269531 Z M 9.820312 -12.996094 L 9.820312 -19.316406 L 13.214844 -19.316406 C 15.523438 -19.316406 16.789062 -18.195312 16.789062 -16.171875 C 16.789062 -14.152344 15.523438 -12.996094 13.214844 -12.996094 Z M 9.820312 -12.996094 "/></g></g></g><g fill="#ffffff" fill-opacity="1"><g transform="translate(104.007242, 69.191794)"><g><path d="M 2.671875 0 L 20.398438 0 L 20.398438 -5.957031 L 9.890625 -5.957031 L 9.890625 -9.855469 L 19.027344 -9.855469 L 19.027344 -15.703125 L 9.890625 -15.703125 L 9.890625 -19.386719 L 20 -19.386719 L 20 -25.269531 L 2.671875 -25.269531 Z M 2.671875 0 "/></g></g></g><g fill="#ffffff" fill-opacity="1"><g transform="translate(128.770366, 69.191794)"><g><path d="M 2.671875 0 L 9.964844 0 L 9.964844 -6.246094 L 13.320312 -6.246094 C 19.746094 -6.246094 23.828125 -9.964844 23.828125 -15.777344 C 23.828125 -21.589844 19.746094 -25.269531 13.320312 -25.269531 L 2.671875 -25.269531 Z M 9.890625 -12.347656 L 9.890625 -19.132812 L 12.636719 -19.132812 C 15.054688 -19.132812 16.460938 -17.835938 16.460938 -15.742188 C 16.460938 -13.609375 15.054688 -12.347656 12.636719 -12.347656 Z M 9.890625 -12.347656 "/></g></g></g><g fill="#000000" fill-opacity="1"><g transform="translate(188.95536, 69.428589)"><g><path d="M 2.671875 0 L 20.394531 0 L 20.394531 -5.957031 L 9.890625 -5.957031 L 9.890625 -9.855469 L 19.023438 -9.855469 L 19.023438 -15.703125 L 9.890625 -15.703125 L 9.890625 -19.386719 L 20 -19.386719 L 20 -25.269531 L 2.671875 -25.269531 Z M 2.671875 0 "/></g></g></g><g fill="#000000" fill-opacity="1"><g transform="translate(210.97417, 69.428589)"><g><path d="M 2.671875 0 L 20.289062 0 L 20.289062 -6.75 L 9.964844 -6.75 L 9.964844 -25.269531 L 2.671875 -25.269531 Z M 2.671875 0 "/></g></g></g><g fill="#000000" fill-opacity="1"><g transform="translate(232.162768, 69.428589)"><g><path d="M 2.671875 0 L 20.394531 0 L 20.394531 -5.957031 L 9.890625 -5.957031 L 9.890625 -9.855469 L 19.023438 -9.855469 L 19.023438 -15.703125 L 9.890625 -15.703125 L 9.890625 -19.386719 L 20 -19.386719 L 20 -25.269531 L 2.671875 -25.269531 Z M 2.671875 0 "/></g></g></g><g fill="#000000" fill-opacity="1"><g transform="translate(254.181578, 69.428589)"><g><path d="M 9.675781 0 L 16.894531 0 L 26.386719 -25.269531 L 18.625 -25.269531 L 15.667969 -16.929688 L 13.320312 -10.359375 L 10.972656 -16.929688 L 8.015625 -25.269531 L 0.179688 -25.269531 Z M 9.675781 0 "/></g></g></g><g fill="#000000" fill-opacity="1"><g transform="translate(280.748543, 69.428589)"><g><path d="M 0.179688 0 L 7.90625 0 L 9.277344 -3.574219 L 17.90625 -3.574219 L 19.277344 0 L 27.039062 0 L 17.21875 -25.269531 L 10 -25.269531 Z M 10.792969 -8.917969 L 13.609375 -16.75 L 16.425781 -8.917969 Z M 10.792969 -8.917969 "/></g></g></g><g fill="#000000" fill-opacity="1"><g transform="translate(307.965238, 69.428589)"><g><path d="M 8.699219 0 L 15.957031 0 L 15.957031 -18.519531 L 23.644531 -18.519531 L 23.644531 -25.269531 L 1.011719 -25.269531 L 1.011719 -18.519531 L 8.699219 -18.519531 Z M 8.699219 0 "/></g></g></g><g fill="#000000" fill-opacity="1"><g transform="translate(332.619092, 69.428589)"><g><path d="M 2.671875 0 L 20.394531 0 L 20.394531 -5.957031 L 9.890625 -5.957031 L 9.890625 -9.855469 L 19.023438 -9.855469 L 19.023438 -15.703125 L 9.890625 -15.703125 L 9.890625 -19.386719 L 20 -19.386719 L 20 -25.269531 L 2.671875 -25.269531 Z M 2.671875 0 "/></g></g></g></svg>